<svg width="14" height="20" viewBox="0 0 14 20" fill="none" xmlns="http://www.w3.org/2000/svg">
<path fill-rule="evenodd" clip-rule="evenodd" d="M10.8333 0C12.214 0 13.3333 1.11929 13.3333 2.5V17.5C13.3333 18.8807 12.214 20 10.8333 20H2.5C1.11929 20 0 18.8807 0 17.5V2.5C0 1.11929 1.11929 0 2.5 0H10.8333ZM1.25 3.75V16.25H12.0833V3.75H1.25ZM12.0833 2.5H1.25L1.25572 2.37962C1.31629 1.74574 1.85025 1.25 2.5 1.25H10.8333L10.9537 1.25572C11.5876 1.31629 12.0833 1.85025 12.0833 2.5ZM12.0833 17.5H1.25C1.25 18.1497 1.74574 18.6837 2.37962 18.7443L2.5 18.75H10.8333C11.4831 18.75 12.017 18.2543 12.0776 17.6204L12.0833 17.5Z" fill="#0B1426"/>
<path d="M6.04199 10.6247C6.04199 10.9699 6.32181 11.2497 6.66699 11.2497C6.9834 11.2497 7.2449 11.0145 7.28629 10.7095L7.29199 10.6247L7.29199 6.45801C7.29199 6.11283 7.01217 5.83301 6.66699 5.83301C6.35058 5.83301 6.08908 6.06814 6.0477 6.3732L6.04199 6.45801L6.04199 10.6247Z" fill="#0B1426"/>
<path d="M3.72529 8.51607C3.50341 8.73795 3.48323 9.08517 3.66478 9.32985L3.72529 9.39995L6.22529 11.9C6.44718 12.1218 6.7944 12.142 7.03908 11.9605L7.10918 11.9L9.60918 9.39995C9.85326 9.15587 9.85326 8.76014 9.60918 8.51607C9.38729 8.29418 9.04007 8.27401 8.79539 8.45555L8.72529 8.51607L6.66724 10.5738L4.60918 8.51607C4.38729 8.29418 4.04007 8.27401 3.79539 8.45555L3.72529 8.51607Z" fill="#0B1426"/>
<path d="M9.1665 13.9582C9.1665 14.4184 8.79341 14.7915 8.33317 14.7915L4.99984 14.7915C4.5396 14.7915 4.1665 14.4184 4.1665 13.9582C4.1665 13.4979 4.5396 13.1248 4.99984 13.1248L8.33317 13.1248C8.79341 13.1248 9.1665 13.4979 9.1665 13.9582Z" fill="#0B1426"/>
</svg>
