<svg width="24" height="24" viewBox="0 0 24 24" fill="none" xmlns="http://www.w3.org/2000/svg">
<path fill-rule="evenodd" clip-rule="evenodd" d="M12 24C18.6274 24 24 18.6274 24 12C24 5.37258 18.6274 0 12 0C5.37258 0 0 5.37258 0 12C0 18.6274 5.37258 24 12 24Z" fill="#0058AA"/>
<path fill-rule="evenodd" clip-rule="evenodd" d="M12 20C16.4183 20 20 16.4183 20 12C20 7.58172 16.4183 4 12 4C7.58172 4 4 7.58172 4 12C4 16.4183 7.58172 20 12 20ZM18.5057 12.7273C18.2356 15.17 16.6214 17.2077 14.419 18.084C15.1281 16.6396 15.5424 14.7579 15.6222 12.7273H18.5057ZM14.1662 12.7273C14.06 15.1808 13.4195 17.3492 12.4207 18.5322C12.2816 18.541 12.1414 18.5455 12.0001 18.5455C11.8586 18.5455 11.7182 18.541 11.5789 18.5322C10.5801 17.3491 9.93953 15.1807 9.83335 12.7273H14.1662ZM8.37736 12.7273C8.45713 14.7577 8.87136 16.6393 9.58043 18.0837C7.37848 17.2071 5.7646 15.1697 5.49463 12.7273H8.37736ZM9.83337 11.2727H14.1662C14.06 8.8192 13.4194 6.6508 12.4205 5.46787C12.2815 5.45906 12.1414 5.45459 12.0001 5.45459C11.8587 5.45459 11.7182 5.45908 11.579 5.46792C10.5802 6.65086 9.93958 8.81923 9.83337 11.2727ZM9.58052 5.91636C8.87143 7.36069 8.45717 9.24228 8.37737 11.2727H5.49464C5.76466 8.83028 7.37856 6.79289 9.58052 5.91636ZM18.5056 11.2727H15.6222C15.5424 9.24212 15.1281 7.36038 14.4189 5.91601C16.6213 6.79234 18.2356 8.82995 18.5056 11.2727Z" fill="white"/>
</svg>
