<svg width="24" height="24" viewBox="0 0 24 24" fill="none" xmlns="http://www.w3.org/2000/svg">
<path d="M4.39558 21.2735L13.7332 11.6792L4.40341 2.10205C4.15421 2.25116 4 2.59639 4 3.0483V20.3365C4.00334 20.7884 4.15198 21.1084 4.39558 21.2735Z" fill="white"/>
<path d="M14.0676 11.4143L16.849 8.55604L5.5223 2.17434C5.33158 2.06047 5.11493 2.00033 4.89429 2L14.0665 11.4131L14.0676 11.4143Z" fill="white"/>
<path d="M14.0673 11.9453L4.86609 21.3997C5.09703 21.4037 5.32451 21.3417 5.52316 21.2208L16.8722 14.8219L14.0673 11.9453Z" fill="white"/>
<path d="M20.9523 10.8718L17.1831 8.74414L14.3257 11.6804L17.2043 14.6349L20.9512 12.5131C21.7479 12.0623 21.7479 11.3202 20.9523 10.8718H20.9523Z" fill="white"/>
</svg>
